Coordinates
version=1
nRows=38
nColumns=38
inDegrees=no

Units are S.I. units (second, meters, Newtons, ...)
If the header above contains a line with 'inDegrees', this indicates whether rotational values are in degrees (yes) or radians (no).

endheader
time	pelvis_tilt	pelvis_list	pelvis_rotation	pelvis_tx	pelvis_ty	pelvis_tz	hip_flexion_r	hip_adduction_r	hip_rotation_r	knee_angle_r	ankle_angle_r	subtalar_angle_r	mtp_angle_r	hip_flexion_l	hip_adduction_l	hip_rotation_l	knee_angle_l	ankle_angle_l	subtalar_angle_l	mtp_angle_l	lumbar_extension	lumbar_bending	lumbar_rotation	arm_flex_r	arm_add_r	arm_rot_r	elbow_flex_r	pro_sup_r	wrist_flex_r	wrist_dev_r	arm_flex_l	arm_add_l	arm_rot_l	elbow_flex_l	pro_sup_l	wrist_flex_l	wrist_dev_l
185.16	2.94796	1.19956	-1.379	0.953374	-0.894596	1.08544	-0.226709	0.0482855	0.116843	0.305006	-0.295011	0	0	-0.44578	-0.118813	-0.487067	0.545982	-0.152757	0	0	-0.706526	-0.141405	0.566712	0.0675705	-0.164349	-0.75409	1.93279	1.5708	0	0	0.532275	0.556417	0.0434916	1.24293	1.5708	0	0
185.17	2.95591	1.18563	-1.39029	0.954979	-0.893011	1.08622	-0.247817	0.0472187	0.115274	0.299082	-0.289231	0	0	-0.444957	-0.127987	-0.488094	0.585895	-0.155098	0	0	-0.724178	-0.127508	0.565578	-0.0624138	-0.296984	-0.663012	1.9843	1.5708	0	0	0.540757	0.554987	0.0281946	1.24181	1.5708	0	0
185.18	2.95535	1.19258	-1.38886	0.956402	-0.889295	1.0863	-0.249799	0.046823	0.111025	0.287555	-0.289504	0	0	-0.418092	-0.140206	-0.486595	0.633847	-0.162133	0	0	-0.714351	-0.148743	0.569119	0.0801635	-0.166292	-0.752331	1.92392	1.5708	0	0	0.542809	0.56533	0.0313318	1.23363	1.5708	0	0
185.19	2.96006	1.18994	-1.39553	0.957886	-0.886882	1.08672	-0.259472	0.0451016	0.10795	0.279663	-0.289771	0	0	-0.404503	-0.146863	-0.478442	0.670195	-0.162333	0	0	-0.717357	-0.153172	0.573338	0.0857192	-0.166147	-0.756595	1.92028	1.5708	0	0	0.549958	0.57054	0.0275461	1.22455	1.5708	0	0
185.2	2.96618	1.18758	-1.40372	0.959285	-0.884575	1.08723	-0.268331	0.0426008	0.103563	0.272732	-0.290792	0	0	-0.388912	-0.154157	-0.476134	0.710431	-0.166524	0	0	-0.720933	-0.158544	0.575712	0.0923341	-0.166802	-0.758658	1.91602	1.5708	0	0	0.556982	0.575883	0.022034	1.21727	1.5708	0	0
185.21	2.97296	1.18069	-1.41458	0.960638	-0.882851	1.08793	-0.28072	0.0399973	0.100459	0.267704	-0.291688	0	0	-0.378265	-0.157735	-0.468479	0.747433	-0.16932	0	0	-0.733792	-0.173803	0.578665	0.100059	-0.168107	-0.766261	1.9149	1.5708	0	0	0.564138	0.586941	0.0202679	1.21869	1.5708	0	0
185.22	2.98112	1.17303	-1.42639	0.961958	-0.881107	1.08869	-0.294541	0.0373774	0.0959867	0.261994	-0.292571	0	0	-0.368959	-0.161748	-0.465203	0.783134	-0.172104	0	0	-0.74258	-0.152612	0.576512	-0.0321887	-0.307507	-0.663894	1.96331	1.5708	0	0	0.573318	0.581763	-0.00084636	1.20901	1.5708	0	0
185.23	2.98486	1.18308	-1.43031	0.963044	-0.877676	1.08882	-0.291114	0.0349742	0.0905469	0.253848	-0.295363	0	0	-0.340124	-0.165166	-0.456491	0.816509	-0.170745	0	0	-0.730706	-0.177049	0.577627	0.114844	-0.170332	-0.757614	1.90113	1.5708	0	0	0.575116	0.594441	-0.00196839	1.20138	1.5708	0	0
185.24	2.99298	1.18201	-1.44138	0.964076	-0.875474	1.08937	-0.296834	0.031176	0.085855	0.24974	-0.296546	0	0	-0.325135	-0.168315	-0.457905	0.844783	-0.168035	0	0	-0.733715	-0.18399	0.578832	0.121946	-0.171058	-0.75929	1.89641	1.5708	0	0	0.581424	0.600913	-0.00937316	1.19511	1.5708	0	0
185.25	2.99851	1.18204	-1.45106	0.965223	-0.873412	1.08991	-0.300443	0.028479	0.0845344	0.246536	-0.29833	0	0	-0.308396	-0.167559	-0.449177	0.867369	-0.162424	0	0	-0.736054	-0.190862	0.580128	0.129826	-0.172674	-0.758689	1.89119	1.5708	0	0	0.587338	0.607556	-0.0181197	1.19021	1.5708	0	0
185.26	3.00524	1.18211	-1.46178	0.966199	-0.871387	1.09042	-0.303677	0.025308	0.0827783	0.244408	-0.299915	0	0	-0.292707	-0.167436	-0.445977	0.884998	-0.157096	0	0	-0.738255	-0.198027	0.581178	0.137763	-0.174508	-0.758149	1.88557	1.5708	0	0	0.593062	0.614658	-0.0271601	1.18511	1.5708	0	0
185.27	3.0135	1.18227	-1.47315	0.966874	-0.869389	1.09095	-0.306164	0.0215718	0.079437	0.243293	-0.300972	0	0	-0.277499	-0.168747	-0.448871	0.898751	-0.153497	0	0	-0.740811	-0.205048	0.580924	0.145821	-0.176401	-0.757563	1.88014	1.5708	0	0	0.598436	0.622345	-0.0371813	1.1807	1.5708	0	0
185.28	3.02523	1.17016	-1.49129	0.967747	-0.868924	1.09223	-0.3187	0.0165196	0.0810624	0.243942	-0.302654	0	0	-0.2768	-0.161756	-0.439714	0.9001	-0.149626	0	0	-0.761387	-0.194887	0.579816	0.0129337	-0.326766	-0.655582	1.93325	1.5708	0	0	0.609244	0.625086	-0.0564811	1.17963	1.5708	0	0
185.29	3.03166	1.18185	-1.49945	0.968182	-0.865434	1.09228	-0.309367	0.012521	0.0763601	0.243795	-0.30493	0	0	-0.250912	-0.162743	-0.442184	0.903087	-0.149565	0	0	-0.74731	-0.220949	0.578822	0.162257	-0.181207	-0.753242	1.86828	1.5708	0	0	0.609582	0.634746	-0.0560179	1.17375	1.5708	0	0
185.3	3.05527	1.18276	-1.5266	0.968942	-0.862733	1.09215	-0.318072	-0.000341761	0.0610821	0.247581	-0.303638	0	0	-0.238833	-0.153432	-0.440094	0.896998	-0.149238	0	0	-0.747492	-0.234168	0.576913	0.167297	-0.179897	-0.754599	1.86424	1.5708	0	0	0.615297	0.636332	-0.0582147	1.1685	1.5708	0	0
185.31	3.10395	1.18809	-1.57975	0.970319	-0.859364	1.09041	-0.335369	-0.0278928	0.0468418	0.243352	-0.263842	0	0	-0.223459	-0.129468	-0.429686	0.883504	-0.145385	0	0	-0.740821	-0.258139	0.572181	0.16973	-0.175266	-0.756222	1.8615	1.5708	0	0	0.620442	0.634455	-0.056191	1.16428	1.5708	0	0
185.32	3.12847	1.19109	-1.60865	0.971033	-0.856606	1.08982	-0.342536	-0.0418223	0.0431087	0.239997	-0.249337	0	0	-0.209893	-0.119474	-0.429256	0.869954	-0.144214	0	0	-0.73824	-0.271803	0.569833	0.174509	-0.174176	-0.755193	1.85806	1.5708	0	0	0.625074	0.635436	-0.0587611	1.16139	1.5708	0	0
185.33	3.13678	1.1923	-1.62079	0.971235	-0.854437	1.09017	-0.341887	-0.0465541	0.043106	0.241286	-0.248647	0	0	-0.19829	-0.1153	-0.427765	0.852375	-0.144918	0	0	-0.739429	-0.278536	0.56869	0.180737	-0.176292	-0.752482	1.8537	1.5708	0	0	0.630415	0.638809	-0.0651892	1.1581	1.5708	0	0
185.34	3.13747	1.18866	-1.62665	0.971275	-0.852969	1.0909	-0.344047	-0.048396	0.0476603	0.244599	-0.251398	0	0	-0.192688	-0.113677	-0.428983	0.832168	-0.146477	0	0	-0.750559	-0.29223	0.568579	0.186977	-0.179714	-0.756312	1.85389	1.5708	0	0	0.635353	0.648843	-0.0678037	1.16365	1.5708	0	0
185.35	3.09096	1.19494	-1.58893	0.97154	-0.85256	1.0935	-0.386388	-0.0347785	-0.0104086	0.105967	-0.374216	0	0	-0.176335	-0.130752	-0.427164	0.808775	-0.156955	0	0	-0.749153	-0.273253	0.575362	0.200941	-0.188797	-0.740098	1.84467	1.5708	0	0	0.640839	0.652838	-0.0910136	1.15932	1.5708	0	0
185.36	-3.13002	1.18234	-1.64884	0.971529	-0.848897	1.09176	-0.353809	-0.0572041	0.050747	0.243843	-0.265491	0	0	-0.184374	-0.104542	-0.429424	0.780925	-0.157651	0	0	-0.761709	-0.276176	0.564141	0.0550735	-0.337803	-0.637413	1.90456	1.5708	0	0	0.648042	0.644081	-0.0936995	1.15672	1.5708	0	0
185.37	-3.12276	1.19612	-1.65444	0.971081	-0.845031	1.09161	-0.341037	-0.0578124	0.0499242	0.244638	-0.264448	0	0	-0.162589	-0.101568	-0.423527	0.753607	-0.1618	0	0	-0.744266	-0.298825	0.561045	0.20109	-0.18471	-0.737883	1.83971	1.5708	0	0	0.647531	0.652192	-0.0945952	1.15094	1.5708	0	0
185.38	-3.09067	1.21431	-1.70453	0.973085	-0.844327	1.08874	-0.25062	-0.0660588	0.0981142	0.273608	-0.347561	0	0	-0.133898	-0.0856712	-0.4271	0.727229	-0.171113	0	0	-0.727354	-0.323043	0.567587	0.210704	-0.182101	-0.740794	1.83828	1.5708	0	0	0.655353	0.656306	-0.100751	1.14879	1.5708	0	0
185.39	-3.0824	1.21427	-1.71301	0.972342	-0.841805	1.08915	-0.252993	-0.0691357	0.0952676	0.275583	-0.351318	0	0	-0.13044	-0.0790116	-0.421546	0.690121	-0.182273	0	0	-0.72988	-0.326887	0.564283	0.21456	-0.182547	-0.739431	1.83743	1.5708	0	0	0.659605	0.659191	-0.106933	1.14625	1.5708	0	0
185.4	-3.07531	1.25531	-1.58026	0.962283	-0.827941	1.08833	-0.275211	-0.0274518	-0.0931637	0.210354	-0.388974	0	0	-0.0533568	-0.0920628	-0.251224	0.682451	-0.187946	0	0	-0.696902	-0.257235	0.473622	0.186178	-0.131649	-0.751849	1.83202	1.5708	0	0	0.643388	0.619146	-0.0688899	1.14185	1.5708	0	0
185.41	-3.06528	1.25564	-1.59	0.961362	-0.825424	1.08867	-0.278986	-0.0302962	-0.0911775	0.206985	-0.39198	0	0	-0.0543302	-0.0820307	-0.235113	0.636414	-0.206135	0	0	-0.699593	-0.260853	0.470412	0.189801	-0.132095	-0.751025	1.83135	1.5708	0	0	0.647176	0.62285	-0.0757101	1.14014	1.5708	0	0
185.42	-3.05261	1.256	-1.60107	0.960177	-0.822886	1.08895	-0.281165	-0.0345025	-0.0918002	0.20749	-0.392467	0	0	-0.0567463	-0.070368	-0.213617	0.587387	-0.230856	0	0	-0.70267	-0.264513	0.465249	0.193027	-0.132113	-0.75012	1.83137	1.5708	0	0	0.650955	0.625605	-0.081344	1.13905	1.5708	0	0
185.43	-3.08876	1.22567	-1.55587	0.957216	-0.820859	1.09529	-0.347859	-0.0127053	-0.104126	0.181511	-0.381314	0	0	-0.100058	-0.075606	-0.18885	0.521117	-0.270489	0	0	-0.742018	-0.246722	0.459137	0.201556	-0.138748	-0.746482	1.83138	1.5708	0	0	0.657094	0.63374	-0.0932636	1.13942	1.5708	0	0
185.44	-3.08514	1.22576	-1.55834	0.955772	-0.817916	1.09522	-0.348386	-0.0144863	-0.104346	0.184851	-0.381588	0	0	-0.0967949	-0.0753874	-0.193933	0.494028	-0.292299	0	0	-0.743334	-0.246946	0.456967	0.20256	-0.139398	-0.746474	1.83174	1.5708	0	0	0.658817	0.63641	-0.0968594	1.1386	1.5708	0	0
185.45	-3.07485	1.22627	-1.56667	0.95439	-0.815194	1.09542	-0.351034	-0.0181129	-0.104001	0.184933	-0.380345	0	0	-0.105317	-0.0616551	-0.158333	0.437212	-0.317908	0	0	-0.745624	-0.249164	0.45361	0.203524	-0.139736	-0.747437	1.83246	1.5708	0	0	0.661483	0.638633	-0.0993563	1.13701	1.5708	0	0
185.46	-3.06961	1.22702	-1.56896	0.95264	-0.812319	1.09527	-0.352342	-0.0204116	-0.107741	0.188752	-0.377619	0	0	-0.105511	-0.0568752	-0.147465	0.403926	-0.33207	0	0	-0.746669	-0.2484	0.45099	0.203211	-0.14071	-0.748806	1.83376	1.5708	0	0	0.662722	0.640334	-0.10002	1.13573	1.5708	0	0
185.47	-3.06644	1.22753	-1.56928	0.950788	-0.809336	1.09503	-0.353398	-0.0223249	-0.110765	0.193344	-0.374309	0	0	-0.105988	-0.0531258	-0.139088	0.373824	-0.342555	0	0	-0.747293	-0.246818	0.449359	0.202098	-0.141958	-0.750854	1.83536	1.5708	0	0	0.663558	0.642045	-0.0997245	1.1336	1.5708	0	0
185.48	-3.06641	1.22809	-1.56758	0.948896	-0.806075	1.09467	-0.354427	-0.0235338	-0.112156	0.198242	-0.370878	0	0	-0.106717	-0.0515572	-0.137985	0.347995	-0.34787	0	0	-0.746607	-0.244429	0.449595	0.199625	-0.143613	-0.753322	1.837	1.5708	0	0	0.662449	0.64369	-0.0984327	1.13211	1.5708	0	0
185.49	-3.06916	1.22866	-1.56387	0.947049	-0.802668	1.09418	-0.354442	-0.0242755	-0.114026	0.205414	-0.366779	0	0	-0.107127	-0.0514047	-0.140516	0.326909	-0.350387	0	0	-0.745061	-0.241521	0.451105	0.196293	-0.145695	-0.756141	1.83828	1.5708	0	0	0.660777	0.645429	-0.0969406	1.13032	1.5708	0	0
185.5	-3.072	1.22892	-1.55982	0.945073	-0.799293	1.09371	-0.354953	-0.0249123	-0.116755	0.212189	-0.361657	0	0	-0.108379	-0.0512067	-0.143017	0.307515	-0.352974	0	0	-0.743817	-0.2383	0.452675	0.19294	-0.148257	-0.759415	1.83939	1.5708	0	0	0.659204	0.645759	-0.0930199	1.12823	1.5708	0	0
185.51	-3.07471	1.22913	-1.55557	0.94298	-0.795915	1.09319	-0.355404	-0.0255294	-0.119618	0.219348	-0.35643	0	0	-0.109082	-0.0510062	-0.145227	0.293149	-0.354358	0	0	-0.742604	-0.234868	0.453898	0.189458	-0.150814	-0.762749	1.84072	1.5708	0	0	0.656962	0.645699	-0.0880845	1.12691	1.5708	0	0
185.52	-3.10535	1.19441	-1.65411	0.948151	-0.803281	1.09446	-0.328763	-0.0675884	0.0462653	0.309813	-0.31525	0	0	-0.172052	-0.0342561	-0.289421	0.247349	-0.374445	0	0	-0.776533	-0.289472	0.536048	0.218373	-0.207353	-0.749118	1.84403	1.5708	0	0	0.671755	0.687034	-0.128317	1.13198	1.5708	0	0
185.53	-3.03427	1.25675	-1.6002	0.940227	-0.788451	1.08648	-0.299813	-0.0529335	-0.109525	0.251603	-0.356468	0	0	-0.0765505	-0.0345868	-0.14924	0.288129	-0.343337	0	0	-0.706459	-0.248153	0.458763	0.175146	-0.149938	-0.774434	1.84321	1.5708	0	0	0.648635	0.639458	-0.0676744	1.12233	1.5708	0	0
